<svg version="1.1" id="Layer_1" xmlns="http://www.w3.org/2000/svg" xmlns:xlink="http://www.w3.org/1999/xlink" x="0px" y="0px"
	 width="100%" viewBox="0 0 512 512" enable-background="new 0 0 512 512" xml:space="preserve">

<path fill="#FFA91A" opacity="1.000000" stroke="none" 
	d="
M172.868347,102.963654 
	C174.706680,91.045258 176.515259,79.122169 178.397537,67.210716 
	C179.184097,62.233185 180.298798,57.302849 180.952026,52.310196 
	C181.634720,47.092312 182.837540,43.418072 189.631287,41.680988 
	C210.644485,36.308159 231.475372,30.134197 252.653885,25.550407 
	C258.903259,24.197823 266.196838,26.562855 272.793549,28.138391 
	C289.638947,32.161686 306.361298,36.700047 323.370850,41.453899 
	C323.457581,43.506058 322.950439,45.195755 323.209839,46.758194 
	C325.976868,63.424667 328.843201,80.074814 331.733368,96.720573 
	C332.654175,102.023872 331.982117,102.995567 326.734528,102.995522 
	C275.445801,102.995094 224.157074,102.976837 172.868347,102.963654 
z"/>
<path fill="#648940" opacity="1.000000" stroke="none" 
	d="
M375.008514,318.846008 
	C388.125153,331.193024 397.470093,346.205078 398.681213,364.059418 
	C400.375702,389.038422 399.865387,414.178436 399.930908,439.250549 
	C399.955139,448.530182 390.770111,456.901886 381.362701,456.991394 
	C372.208771,457.078552 363.053101,456.984375 353.432831,456.458008 
	C352.978302,447.633545 352.989166,439.320831 353.301086,430.845398 
	C358.688202,426.894501 359.711334,421.104218 359.840637,415.567352 
	C360.197205,400.300446 359.891937,385.018097 359.927246,369.345154 
	C360.307007,359.490479 360.614075,350.032623 360.906555,340.574371 
	C361.087708,334.716034 358.596161,330.658417 352.910126,328.333710 
	C352.961487,320.189423 353.000702,312.498566 353.394958,304.883789 
	C360.836182,309.588593 367.922363,314.217285 375.008514,318.846008 
z"/>
<path fill="#FFD2BF" opacity="1.000000" stroke="none" 
	d="
M160.899216,195.927979 
	C160.785049,185.381210 164.154221,176.935059 175.474518,172.655807 
	C178.089417,171.955338 180.029800,171.476089 182.203857,171.269287 
	C185.252701,172.558243 188.067871,173.574753 190.927902,174.968552 
	C193.063797,181.963470 194.674652,188.785004 197.374771,195.144028 
	C200.346695,202.143234 206.533417,205.000595 213.979218,204.729538 
	C218.948792,204.548645 223.900711,203.890808 228.861420,203.456451 
	C234.944702,202.923767 239.669632,199.886002 242.714279,194.820084 
	C245.252502,190.596832 247.687744,186.064362 248.872055,181.343567 
	C250.081604,176.522141 252.897629,175.231689 257.008392,175.234283 
	C261.122803,175.236877 264.158936,176.450241 265.068237,181.389282 
	C265.742584,185.051926 267.564270,188.592789 269.332733,191.946457 
	C273.380432,199.622406 279.771271,203.697418 288.610016,203.911697 
	C293.083954,204.020157 297.546814,204.585403 301.962280,205.297455 
	C296.847534,212.363541 292.538727,219.849976 286.585571,225.648132 
	C266.389893,245.317963 242.251709,250.356659 215.383850,242.570099 
	C209.701569,240.923309 204.283020,238.366486 198.764954,236.184753 
	C198.786972,236.140518 198.869034,236.195526 198.777283,235.941483 
	C198.402771,235.476166 198.120010,235.264908 197.573700,234.846756 
	C194.867416,230.117126 192.216537,225.690460 190.066513,221.032593 
	C188.929153,218.568573 187.605484,217.883743 184.921051,217.544571 
	C180.731415,217.015182 176.371017,216.005676 172.634613,214.111481 
	C165.395447,210.441559 162.480652,203.503372 160.899216,195.927979 
M271.185547,228.516251 
	C274.241455,221.909485 273.171844,220.151917 266.017334,220.123154 
	C259.556183,220.097168 253.093506,220.038712 246.633972,220.145416 
	C241.221252,220.234848 239.896652,222.582687 242.279861,227.511688 
	C247.925308,239.187759 262.084320,240.013199 271.185547,228.516251 
M177.637650,182.918198 
	C171.446167,187.313202 169.654449,192.703979 172.216446,199.229126 
	C174.425400,204.855087 179.487335,207.952667 184.954269,207.308563 
	C184.954269,200.524033 184.960983,193.791763 184.952408,187.059509 
	C184.943710,180.240875 184.834473,180.170914 177.637650,182.918198 
z"/>
<path fill="#F79219" opacity="1.000000" stroke="none" 
	d="
M172.524475,103.173416 
	C224.157074,102.976837 275.445801,102.995094 326.734528,102.995522 
	C331.982117,102.995567 332.654175,102.023872 331.733368,96.720573 
	C328.843201,80.074814 325.976868,63.424667 323.209839,46.758194 
	C322.950439,45.195755 323.457581,43.506058 323.770264,41.526840 
	C333.235809,42.890545 332.765442,50.752609 333.967224,57.402351 
	C336.390564,70.810989 338.631531,84.253014 340.879639,97.692657 
	C341.682861,102.494713 342.289368,107.329666 342.456177,112.573395 
	C285.733459,112.997185 229.540314,112.997185 173.347153,112.997185 
	C173.347412,113.312607 173.347672,113.628021 173.347916,113.943443 
	C229.930954,113.943443 286.513977,113.943443 343.097015,113.943443 
	C343.097015,113.943443 343.537872,114.033211 343.779602,114.485817 
	C346.156311,123.653435 342.619629,127.976273 333.158936,127.979309 
	C275.163422,127.997925 217.167877,127.980820 159.172363,127.975616 
	C160.983231,125.282661 162.440674,122.241562 164.678802,119.969467 
	C169.287003,115.291336 172.406006,110.149559 172.524475,103.173416 
z"/>
<path fill="#595A5B" opacity="1.000000" stroke="none" 
	d="
M306.801788,466.920685 
	C306.866730,468.582153 306.997589,470.244110 306.984589,471.904968 
	C306.940796,477.507141 305.524078,478.979401 299.916718,478.984802 
	C271.939453,479.011902 243.962173,478.999115 215.984894,478.996826 
	C207.824112,478.996155 206.958466,478.106232 207.007126,469.810059 
	C207.011032,469.144257 207.042847,468.478577 207.582428,467.377686 
	C210.926773,466.952118 213.763092,466.795593 216.570938,467.010773 
	C220.660538,467.324158 222.235489,465.695587 222.104416,461.547363 
	C221.873718,454.246338 222.119202,446.931610 222.012955,439.624817 
	C221.946014,435.021027 223.335693,428.480865 220.927292,426.329041 
	C218.147110,423.845093 211.908173,425.232391 207.144363,424.500610 
	C207.033493,414.341095 207.246582,413.911835 213.617188,411.931488 
	C218.617874,411.929108 223.168182,411.871704 228.071259,411.819641 
	C231.698212,407.735229 235.103622,403.741882 238.203766,399.524139 
	C240.555588,396.324524 243.266571,394.622711 247.408600,394.892212 
	C252.031509,395.192993 256.762939,395.485718 261.315643,394.846069 
	C269.687195,393.669800 275.121338,396.972321 279.201599,404.074188 
	C280.901520,407.033020 283.883179,409.255432 286.719696,411.885437 
	C291.717743,411.930511 296.278076,411.902924 301.209656,411.949585 
	C308.830231,414.095673 306.536285,420.043701 306.371460,424.940277 
	C302.593567,424.940674 299.266479,425.060730 295.951782,424.909515 
	C292.875885,424.769257 291.884705,426.147827 291.925659,429.074829 
	C292.034912,436.879242 291.959167,444.686218 291.958771,452.492188 
	C291.958038,467.160339 291.958557,467.160339 306.801788,466.920685 
M276.029480,459.470001 
	C283.484375,449.882416 283.987366,438.168030 277.337860,428.997803 
	C270.789886,419.967621 259.699463,416.368866 249.070709,419.825165 
	C238.912872,423.128357 231.519989,433.403259 232.064316,444.209076 
	C232.573929,454.326324 237.411270,462.116211 246.864487,465.998474 
	C257.516998,470.373291 267.357025,468.583832 276.029480,459.470001 
z"/>
<path fill="#76A34F" opacity="1.000000" stroke="none" 
	d="
M114.157768,436.966980 
	C114.105766,414.658478 113.277641,392.315643 114.263206,370.053070 
	C114.969391,354.101288 121.111938,339.475555 131.523209,326.992767 
	C133.737534,324.337860 136.072723,321.783783 138.987183,318.975555 
	C146.749710,314.153625 153.877289,309.539398 161.020340,305.400391 
	C161.064102,313.506897 161.092392,321.138214 160.757141,328.859772 
	C154.134277,331.339783 152.217468,333.928986 152.159225,340.418152 
	C152.095047,347.569397 152.125473,354.721710 152.147675,361.873444 
	C152.171738,369.622589 153.828171,372.037262 161.060608,375.471100 
	C161.034729,396.287537 161.007080,416.635468 160.512787,436.986633 
	C144.750031,436.982178 129.453903,436.974579 114.157768,436.966980 
M138.478851,332.031525 
	C131.856430,340.334717 126.996567,349.515503 124.532028,359.903748 
	C120.754555,375.826141 122.284081,392.014130 122.106316,408.115845 
	C122.099251,408.755249 122.209305,409.676758 122.624329,409.989197 
	C124.068962,411.076538 125.632530,412.559357 127.230827,412.663391 
	C128.071762,412.718109 129.757523,410.282654 129.882492,408.867493 
	C130.247543,404.732971 129.898178,400.541687 130.048279,396.380585 
	C130.419464,386.090240 130.004303,375.662720 131.579803,365.551239 
	C133.704315,351.916382 140.397324,340.200165 150.715363,330.765869 
	C152.884399,328.782593 154.413818,326.068207 151.776688,324.027252 
	C150.611481,323.125458 147.173843,324.135468 145.413025,325.274750 
	C142.951675,326.867279 141.093918,329.392700 138.478851,332.031525 
M123.290131,427.440460 
	C125.207832,427.661469 127.125534,427.882477 129.043259,428.103455 
	C129.130219,426.401245 129.768463,424.432159 129.117401,423.087189 
	C128.655258,422.132416 125.525375,421.264130 125.195908,421.668518 
	C124.058586,423.064697 123.627045,425.035828 123.290131,427.440460 
z"/>
<path fill="#76A34F" opacity="1.000000" stroke="none" 
	d="
M160.438049,195.956421 
	C162.480652,203.503372 165.395447,210.441559 172.634613,214.111481 
	C176.371017,216.005676 180.731415,217.015182 184.921051,217.544571 
	C187.605484,217.883743 188.929153,218.568573 190.066513,221.032593 
	C192.216537,225.690460 194.867416,230.117126 197.668091,235.102966 
	C198.307007,235.775894 198.588028,235.985718 198.869034,236.195526 
	C198.869034,236.195526 198.786972,236.140518 198.840881,236.500381 
	C199.980652,238.239151 201.066513,239.618042 202.258759,241.249817 
	C202.825378,241.766724 203.285645,242.030731 203.785690,242.304382 
	C203.825470,242.314026 203.761398,242.265289 203.835007,242.506744 
	C204.190369,242.910950 204.472122,243.073685 204.881104,243.174225 
	C205.008347,243.112061 204.763550,243.256821 204.835052,243.501526 
	C205.191803,243.908676 205.477036,244.071136 205.718231,244.263031 
	C205.674194,244.292435 205.703705,244.394165 205.795319,244.695862 
	C207.553970,246.681000 209.221024,248.364456 210.426453,250.044342 
	C177.025742,250.017746 144.086655,249.994705 111.147583,249.971649 
	C111.098885,234.649384 110.985718,219.326904 111.037285,204.004974 
	C111.054764,198.813232 114.194809,196.012192 119.499458,196.004807 
	C132.991913,195.986038 146.484406,195.990005 160.438049,195.956421 
z"/>
<path fill="#668A40" opacity="1.000000" stroke="none" 
	d="
M382.965027,196.188782 
	C386.956116,196.126266 390.947205,196.016632 394.938324,196.013565 
	C399.594025,196.009964 402.930817,198.836700 402.959259,203.426788 
	C403.082764,223.400040 403.078674,243.374847 402.967682,263.348236 
	C402.940186,268.295471 399.776031,270.863342 393.967102,270.996979 
	C387.977966,271.134766 381.983429,271.038239 375.063721,270.974121 
	C342.830780,270.851715 311.525360,270.799377 280.172882,270.326660 
	C280.068451,267.606659 280.011108,265.307007 280.201660,262.751495 
	C288.008453,258.347839 295.567383,254.200058 303.587036,250.047943 
	C326.659851,250.033386 349.271912,250.026245 371.884003,250.011368 
	C380.406799,250.005768 382.956329,247.529617 382.973389,239.085297 
	C383.002228,224.786514 382.970978,210.487610 382.965027,196.188782 
z"/>
<path fill="#76A34F" opacity="1.000000" stroke="none" 
	d="
M382.503174,196.119553 
	C382.970978,210.487610 383.002228,224.786514 382.973389,239.085297 
	C382.956329,247.529617 380.406799,250.005768 371.884003,250.011368 
	C349.271912,250.026245 326.659851,250.033386 303.773682,249.781235 
	C314.112762,240.972748 320.851135,229.703842 326.494171,217.448395 
	C334.376556,218.005096 341.391296,216.256470 346.012085,210.301376 
	C349.220428,206.166580 350.795319,200.764374 353.100006,195.928406 
	C362.747101,195.969055 372.394196,196.009689 382.503174,196.119553 
z"/>
<path fill="#59595B" opacity="1.000000" stroke="none" 
	d="
M351.026184,137.163742 
	C354.171783,148.287247 352.567200,151.194229 338.996643,157.866516 
	C335.552856,159.035065 332.799988,160.042740 329.647827,161.027359 
	C326.174500,161.748856 323.100494,162.493393 319.649139,163.236450 
	C317.137024,163.815308 315.002258,164.395660 312.409637,164.981262 
	C299.821381,164.238235 287.691040,163.489960 275.276062,162.559799 
	C272.564514,161.823380 270.137543,161.268860 267.462982,160.506531 
	C252.743774,155.469864 239.430878,148.605301 228.650635,138.046478 
	C266.790955,137.980194 304.476654,137.974396 342.162231,137.901337 
	C345.117340,137.895599 348.071564,137.420624 351.026184,137.163742 
z"/>
<path fill="#678A40" opacity="1.000000" stroke="none" 
	d="
M111.082932,250.436707 
	C144.086655,249.994705 177.025742,250.017746 210.745697,250.167938 
	C219.031601,254.533463 226.536606,258.771820 234.011215,263.444519 
	C233.915634,266.174347 233.850449,268.469757 233.330658,270.775818 
	C214.383789,270.796204 195.891479,270.773560 177.399368,270.826904 
	C164.578735,270.863861 151.758423,271.005585 138.937958,271.100525 
	C132.794098,271.075348 126.649170,271.112305 120.506630,271.008545 
	C113.556503,270.891174 111.001091,268.250488 110.987091,261.363556 
	C110.980003,257.876312 111.006798,254.389023 111.082932,250.436707 
z"/>
<path fill="#585A5B" opacity="1.000000" stroke="none" 
	d="
M160.979401,436.983429 
	C161.007080,416.635468 161.034729,396.287537 161.519165,375.404602 
	C171.049637,374.790100 180.123322,374.710602 189.166885,375.121887 
	C189.162369,396.045074 189.187988,416.477478 189.165283,437.381470 
	C189.089615,444.180817 189.062286,450.508575 189.034958,456.836334 
	C180.011505,456.883606 170.988037,456.930847 161.498550,456.463135 
	C161.014816,449.626556 160.997116,443.304993 160.979401,436.983429 
z"/>
<path fill="#585A5B" opacity="1.000000" stroke="none" 
	d="
M353.000000,431.008148 
	C352.989166,439.320831 352.978302,447.633545 352.964417,456.404816 
	C343.940399,456.897858 334.919403,456.932343 325.434265,456.445038 
	C324.908539,449.585266 324.846924,443.247223 324.834808,436.451721 
	C324.887909,415.621307 324.891510,395.248413 325.369385,374.841858 
	C334.873596,374.834351 343.903503,374.860504 352.936371,375.364441 
	C352.959595,394.230835 352.979797,412.619507 353.000000,431.008148 
z"/>
<path fill="#ED7817" opacity="1.000000" stroke="none" 
	d="
M351.356293,136.996918 
	C348.071564,137.420624 345.117340,137.895599 342.162231,137.901337 
	C304.476654,137.974396 266.790955,137.980194 228.169815,137.985077 
	C219.571060,138.008514 211.907776,138.049957 203.763672,138.031494 
	C190.292282,137.867599 177.301697,137.763580 164.311127,137.659576 
	C160.351624,136.016068 158.182266,133.304932 159.098969,128.386337 
	C217.167877,127.980820 275.163422,127.997925 333.158936,127.979309 
	C342.619629,127.976273 346.156311,123.653435 343.994934,114.550858 
	C347.339447,117.635803 350.854492,120.982368 354.034119,124.621956 
	C356.440582,127.376526 355.099640,133.427414 351.356293,136.996918 
z"/>
<path fill="#F79219" opacity="1.000000" stroke="none" 
	d="
M138.964417,271.559296 
	C151.758423,271.005585 164.578735,270.863861 177.399368,270.826904 
	C195.891479,270.773560 214.383789,270.796204 233.389191,271.235992 
	C233.952240,274.111023 234.002121,276.536530 234.024384,279.396454 
	C233.931198,281.559540 233.865616,283.288177 233.345886,285.012787 
	C211.433304,285.006256 189.974472,285.074036 168.516815,284.945862 
	C163.864899,284.918060 161.721588,286.604462 161.949890,291.378998 
	C162.148285,295.528168 161.993408,299.694244 161.807465,304.011902 
	C161.353668,304.372223 161.148529,304.623627 161.004868,304.925201 
	C153.877289,309.539398 146.749710,314.153625 139.293671,318.830811 
	C138.973755,303.268524 138.982315,287.643311 138.964417,271.559296 
z"/>
<path fill="#F79219" opacity="1.000000" stroke="none" 
	d="
M280.219940,270.747040 
	C311.525360,270.799377 342.830780,270.851715 374.599945,271.002167 
	C375.041046,286.713226 375.018402,302.326141 375.002136,318.392517 
	C367.922363,314.217285 360.836182,309.588593 353.268280,304.676636 
	C352.541656,304.177643 352.281921,303.981506 352.009583,303.352264 
	C352.011047,299.241943 352.030640,295.584167 352.005035,291.926758 
	C351.962708,285.879822 351.121460,285.012665 345.040527,285.008667 
	C323.427460,284.994385 301.814392,285.012299 280.139038,284.590637 
	C280.033325,282.428497 279.989868,280.693756 279.981293,278.509979 
	C280.084076,275.622986 280.152008,273.185028 280.219940,270.747040 
z"/>
<path fill="#648940" opacity="1.000000" stroke="none" 
	d="
M160.512787,436.986633 
	C160.997116,443.304993 161.014816,449.626556 161.035370,456.406677 
	C151.401978,456.915222 141.753586,457.285858 132.133041,456.921600 
	C123.203972,456.583557 114.344849,449.558838 114.089737,437.379730 
	C129.453903,436.974579 144.750031,436.982178 160.512787,436.986633 
z"/>
<path fill="#434142" opacity="1.000000" stroke="none" 
	d="
M163.987579,137.939087 
	C177.301697,137.763580 190.292282,137.867599 203.631683,138.345596 
	C198.955368,143.292068 194.209030,148.235992 188.799622,152.296646 
	C185.595352,154.701996 184.060913,157.086380 184.334183,161.136780 
	C183.357269,164.569946 182.663712,167.783386 181.970154,170.996841 
	C180.029800,171.476089 178.089417,171.955338 175.773849,172.462189 
	C175.167297,169.231201 174.935928,165.972580 174.690063,162.509659 
	C172.787064,162.177292 170.985458,162.064560 169.315674,161.535629 
	C162.504608,159.378098 160.441589,154.436661 162.130020,144.382751 
	C162.479630,142.300873 163.144455,140.271942 163.987579,137.939087 
z"/>
<path fill="#7F8183" opacity="1.000000" stroke="none" 
	d="
M306.858917,466.476776 
	C291.958557,467.160339 291.958038,467.160339 291.958771,452.492188 
	C291.959167,444.686218 292.034912,436.879242 291.925659,429.074829 
	C291.884705,426.147827 292.875885,424.769257 295.951782,424.909515 
	C299.266479,425.060730 302.593567,424.940674 306.417999,425.404907 
	C306.944641,429.562164 306.968567,433.253448 306.972229,437.416321 
	C306.984009,444.278412 307.016052,450.668945 307.048096,457.059479 
	C307.004059,460.050598 306.960052,463.041748 306.858917,466.476776 
z"/>
<path fill="#7F8183" opacity="1.000000" stroke="none" 
	d="
M207.171112,424.938721 
	C211.908173,425.232391 218.147110,423.845093 220.927292,426.329041 
	C223.335693,428.480865 221.946014,435.021027 222.012955,439.624817 
	C222.119202,446.931610 221.873718,454.246338 222.104416,461.547363 
	C222.235489,465.695587 220.660538,467.324158 216.570938,467.010773 
	C213.763092,466.795593 210.926773,466.952118 207.652435,466.930725 
	C207.143341,463.930267 207.085022,460.941589 207.024963,457.034821 
	C207.017715,449.726227 207.012177,443.335724 207.016891,436.489838 
	C207.075119,432.335876 207.123123,428.637268 207.171112,424.938721 
z"/>
<path fill="#FFD2BF" opacity="1.000000" stroke="none" 
	d="
M353.055267,195.490753 
	C350.795319,200.764374 349.220428,206.166580 346.012085,210.301376 
	C341.391296,216.256470 334.376556,218.005096 326.476807,217.094666 
	C326.875122,212.577118 326.619659,208.087280 332.502289,206.985352 
	C338.518463,205.858383 342.208893,201.193817 342.915924,195.229492 
	C343.422028,190.960526 340.225159,184.069992 335.574585,182.674576 
	C330.020325,181.008011 329.310028,177.765961 330.251068,172.910690 
	C330.992249,172.151367 331.507812,171.575027 332.392090,171.062927 
	C334.704681,171.578369 336.648529,172.029572 338.592377,172.480774 
	C348.375458,176.458130 352.976929,183.661911 353.055267,195.490753 
z"/>
<path fill="#658843" opacity="1.000000" stroke="none" 
	d="
M307.511963,457.038513 
	C307.016052,450.668945 306.984009,444.278412 307.440735,437.433228 
	C313.548065,436.955414 319.166656,436.932312 324.785278,436.909210 
	C324.846924,443.247223 324.908539,449.585266 324.967468,456.379822 
	C319.301788,456.896790 313.638824,456.957184 307.511963,457.038513 
z"/>
<path fill="#658843" opacity="1.000000" stroke="none" 
	d="
M207.006653,436.945221 
	C207.012177,443.335724 207.017715,449.726227 206.986603,456.587524 
	C201.286392,457.023346 195.622818,456.988434 189.497101,456.894928 
	C189.062286,450.508575 189.089615,444.180817 189.609863,437.406616 
	C195.737411,436.955170 201.372025,436.950195 207.006653,436.945221 
z"/>
<path fill="#DF8A22" opacity="1.000000" stroke="none" 
	d="
M343.046875,113.701637 
	C286.513977,113.943443 229.930954,113.943443 173.347916,113.943443 
	C173.347672,113.628021 173.347412,113.312607 173.347153,112.997185 
	C229.540314,112.997185 285.733459,112.997185 342.385132,112.993721 
	C342.843628,112.990257 342.996765,113.459831 343.046875,113.701637 
z"/>
<path fill="#434142" opacity="1.000000" stroke="none" 
	d="
M338.717834,171.998352 
	C336.648529,172.029572 334.704681,171.578369 332.381622,170.632919 
	C331.350647,167.109238 330.698914,164.079819 330.047180,161.050415 
	C332.799988,160.042740 335.552856,159.035065 338.697205,158.037628 
	C339.006897,162.537216 338.925110,167.026581 338.717834,171.998352 
z"/>
<path fill="#FAA81C" opacity="1.000000" stroke="none" 
	d="
M352.933380,374.886688 
	C343.903503,374.860504 334.873596,374.834351 325.077271,374.676697 
	C318.699951,372.808258 316.563263,368.914795 316.721985,363.171997 
	C316.933472,355.521332 316.739380,347.860199 316.786560,340.203979 
	C316.828583,333.384735 318.348846,331.333588 325.442200,328.878632 
	C334.906708,328.872864 343.902344,328.829987 352.897980,328.787109 
	C358.596161,330.658417 361.087708,334.716034 360.906555,340.574371 
	C360.614075,350.032623 360.307007,359.490479 359.663483,369.557312 
	C357.191711,371.739624 355.062561,373.313171 352.933380,374.886688 
M335.996216,366.374298 
	C338.475769,371.752655 340.205750,367.422485 342.984375,365.854523 
	C350.046753,365.793945 351.871613,364.765900 352.016968,360.191895 
	C352.196136,354.553864 352.078827,348.905670 352.052399,343.262054 
	C352.034912,339.531403 350.004883,337.885468 346.387512,337.899872 
	C341.241821,337.920349 336.095947,337.909393 330.950165,337.900360 
	C327.019836,337.893463 325.184906,339.983154 325.138245,343.772369 
	C325.089203,347.755646 325.116730,351.739929 325.117249,355.723755 
	C325.118500,365.237579 326.254395,366.285400 335.996216,366.374298 
z"/>
<path fill="#595A5A" opacity="1.000000" stroke="none" 
	d="
M352.910126,328.333679 
	C343.902344,328.829987 334.906708,328.872864 325.430847,328.421906 
	C324.943146,319.526031 324.828308,311.121521 325.019867,302.723969 
	C325.057739,301.063782 326.274200,299.430481 327.401794,297.806824 
	C335.906738,299.820923 343.957062,301.812958 352.007385,303.804993 
	C352.281921,303.981506 352.541656,304.177643 352.913208,304.600525 
	C353.000702,312.498566 352.961487,320.189423 352.910126,328.333679 
z"/>
<path fill="#76A24F" opacity="1.000000" stroke="none" 
	d="
M352.936371,375.364441 
	C355.062561,373.313171 357.191711,371.739624 359.584656,369.953979 
	C359.891937,385.018097 360.197205,400.300446 359.840637,415.567352 
	C359.711334,421.104218 358.688202,426.894501 353.301086,430.845398 
	C352.979797,412.619507 352.959595,394.230835 352.936371,375.364441 
z"/>
<path fill="#F4921D" opacity="1.000000" stroke="none" 
	d="
M312.867523,164.976013 
	C315.002258,164.395660 317.137024,163.815308 319.817505,163.541275 
	C321.278870,167.411987 322.194489,170.976364 323.077576,174.923141 
	C321.458649,180.910034 319.872223,186.514542 318.200256,192.326508 
	C318.114655,192.533951 318.064056,192.979919 317.878113,193.224121 
	C317.347870,194.198364 317.003601,194.928406 316.427216,195.903625 
	C313.142670,201.780151 308.044556,204.113266 302.014679,204.944122 
	C297.546814,204.585403 293.083954,204.020157 288.610016,203.911697 
	C279.771271,203.697418 273.380432,199.622406 269.332733,191.946457 
	C267.564270,188.592789 265.742584,185.051926 265.068237,181.389282 
	C264.158936,176.450241 261.122803,175.236877 257.008392,175.234283 
	C252.897629,175.231689 250.081604,176.522141 248.872055,181.343567 
	C247.687744,186.064362 245.252502,190.596832 242.714279,194.820084 
	C239.669632,199.886002 234.944702,202.923767 228.861420,203.456451 
	C223.900711,203.890808 218.948792,204.548645 213.979218,204.729538 
	C206.533417,205.000595 200.346695,202.143234 197.374771,195.144028 
	C194.674652,188.785004 193.063797,181.963470 190.953522,174.510254 
	C192.621277,169.260162 194.308289,164.845642 196.343842,160.286118 
	C213.024719,151.661652 229.490631,153.106720 245.529770,160.465607 
	C253.242493,164.004257 260.258423,165.072556 267.710602,160.714325 
	C270.137543,161.268860 272.564514,161.823380 274.940948,162.618988 
	C273.187103,165.293976 270.260803,167.595459 269.980530,170.183456 
	C268.271454,185.966629 277.215668,196.650467 292.776398,198.212845 
	C293.603912,198.295929 294.423676,198.453445 295.249451,198.557022 
	C304.400116,199.704803 309.516663,196.910126 312.967926,188.408676 
	C314.395538,184.892029 315.328583,181.146606 316.194794,177.437088 
	C317.285095,172.768036 316.219666,168.530746 312.867523,164.976013 
M244.231171,173.459930 
	C244.234558,169.806213 244.759781,165.880753 240.519241,163.961304 
	C229.365906,158.912857 217.883514,157.260468 206.162354,161.664673 
	C199.572556,164.140778 196.559723,169.875641 197.686340,176.837204 
	C198.135178,179.610535 198.814484,182.379745 199.713043,185.041412 
	C203.720184,196.911316 208.182404,199.690292 220.566666,198.283493 
	C221.887695,198.133423 223.222717,197.999969 224.548889,198.019577 
	C231.446320,198.121613 236.560745,194.862503 239.409241,188.899216 
	C241.590210,184.333389 242.625885,179.220474 244.231171,173.459930 
z"/>
<path fill="#FBC4AD" opacity="1.000000" stroke="none" 
	d="
M301.962280,205.297455 
	C308.044556,204.113266 313.142670,201.780151 316.724609,196.183594 
	C317.389923,197.321228 317.838593,198.492401 317.614929,199.516754 
	C313.802917,216.974487 304.537964,231.427567 290.255005,241.566711 
	C264.663452,259.733490 237.507034,261.142670 209.844208,245.580673 
	C208.626816,244.895828 207.091125,244.776779 205.703705,244.394165 
	C205.703705,244.394165 205.674194,244.292435 205.663086,244.005905 
	C205.355850,243.565186 205.059692,243.410995 204.763550,243.256821 
	C204.763550,243.256821 205.008347,243.112061 204.826599,242.918274 
	C204.350372,242.571426 204.055878,242.418350 203.761398,242.265289 
	C203.761398,242.265289 203.825470,242.314026 203.719284,242.024033 
	C203.126190,241.488342 202.639282,241.242630 202.152374,240.996918 
	C201.066513,239.618042 199.980652,238.239151 198.818878,236.544617 
	C204.283020,238.366486 209.701569,240.923309 215.383850,242.570099 
	C242.251709,250.356659 266.389893,245.317963 286.585571,225.648132 
	C292.538727,219.849976 296.847534,212.363541 301.962280,205.297455 
z"/>
<path fill="#E59076" opacity="1.000000" stroke="none" 
	d="
M271.012634,228.846451 
	C262.084320,240.013199 247.925308,239.187759 242.279861,227.511688 
	C239.896652,222.582687 241.221252,220.234848 246.633972,220.145416 
	C253.093506,220.038712 259.556183,220.097168 266.017334,220.123154 
	C273.171844,220.151917 274.241455,221.909485 271.012634,228.846451 
z"/>
<path fill="#F2AE97" opacity="1.000000" stroke="none" 
	d="
M177.956604,182.711487 
	C184.834473,180.170914 184.943710,180.240875 184.952408,187.059509 
	C184.960983,193.791763 184.954269,200.524033 184.954269,207.308563 
	C179.487335,207.952667 174.425400,204.855087 172.216446,199.229126 
	C169.654449,192.703979 171.446167,187.313202 177.956604,182.711487 
z"/>
<path fill="#ED7817" opacity="1.000000" stroke="none" 
	d="
M195.995300,160.431107 
	C194.308289,164.845642 192.621277,169.260162 190.908661,174.132965 
	C188.067871,173.574753 185.252701,172.558243 182.203842,171.269287 
	C182.663712,167.783386 183.357269,164.569946 184.803680,161.162384 
	C189.036102,160.789230 192.515701,160.610168 195.995300,160.431107 
z"/>
<path fill="#FBC4AD" opacity="1.000000" stroke="none" 
	d="
M198.777283,235.941483 
	C198.588028,235.985718 198.307007,235.775894 197.931610,235.309875 
	C198.120010,235.264908 198.402771,235.476166 198.777283,235.941483 
z"/>
<path fill="#76A34F" opacity="1.000000" stroke="none" 
	d="
M286.281982,411.812714 
	C283.883179,409.255432 280.901520,407.033020 279.201599,404.074188 
	C275.121338,396.972321 269.687195,393.669800 261.315643,394.846069 
	C256.762939,395.485718 252.031509,395.192993 247.408600,394.892212 
	C243.266571,394.622711 240.555588,396.324524 238.203766,399.524139 
	C235.103622,403.741882 231.698212,407.735229 228.088409,411.457092 
	C227.929428,408.322052 227.030899,406.345764 223.985321,405.490051 
	C223.968674,369.130463 223.943283,333.235992 224.369537,297.286560 
	C227.816376,297.221619 230.811569,297.211639 233.861588,297.653931 
	C233.945099,302.256500 233.888489,306.409485 234.018478,310.556610 
	C234.404343,322.866577 244.700989,332.849060 256.956238,332.874847 
	C269.204315,332.900635 279.559509,322.935547 279.979828,310.645844 
	C280.132935,306.168732 280.126495,301.686157 280.635559,297.187836 
	C284.079529,297.226929 287.080811,297.284241 290.059998,297.783875 
	C290.033081,334.135834 290.028229,370.045502 289.671204,406.028870 
	C288.306671,408.005951 287.294342,409.909332 286.281982,411.812714 
z"/>
<path fill="#76A24F" opacity="1.000000" stroke="none" 
	d="
M207.016891,436.489838 
	C201.372025,436.950195 195.737411,436.955170 189.658203,436.934998 
	C189.187988,416.477478 189.162369,396.045074 189.432953,374.963562 
	C195.061905,372.324493 196.687256,367.988342 196.757446,362.843658 
	C196.859329,355.374298 196.797302,347.902466 196.779251,340.431732 
	C196.765839,334.880890 194.420029,330.870911 189.048950,328.452209 
	C189.063141,319.571686 189.174408,311.150970 188.979706,302.737274 
	C188.941177,301.072449 187.726578,299.434845 187.399490,297.592834 
	C197.511414,297.371674 207.278168,297.342285 217.022278,297.757202 
	C216.991867,334.127716 216.984100,370.053894 216.607971,406.036346 
	C212.525803,406.591644 213.146957,409.393799 213.166779,411.876465 
	C207.246582,413.911835 207.033493,414.341095 207.144379,424.500580 
	C207.123123,428.637268 207.075119,432.335876 207.016891,436.489838 
z"/>
<path fill="#77A24F" opacity="1.000000" stroke="none" 
	d="
M326.947174,297.784760 
	C326.274200,299.430481 325.057739,301.063782 325.019867,302.723969 
	C324.828308,311.121521 324.943146,319.526031 324.961945,328.384827 
	C318.348846,331.333588 316.828583,333.384735 316.786560,340.203979 
	C316.739380,347.860199 316.933472,355.521332 316.721985,363.171997 
	C316.563263,368.914795 318.699951,372.808258 324.602936,374.710388 
	C324.891510,395.248413 324.887909,415.621307 324.834808,436.451721 
	C319.166656,436.932312 313.548065,436.955414 307.460938,436.961670 
	C306.968567,433.253448 306.944641,429.562164 306.874207,425.406250 
	C306.536285,420.043701 308.830231,414.095673 301.228363,411.563995 
	C301.128815,408.240662 300.439087,406.086090 297.031982,405.514496 
	C297.011780,369.135529 296.983093,333.223450 297.422485,297.258057 
	C307.576111,297.398102 317.261658,297.591431 326.947174,297.784760 
z"/>
<path fill="#7F8183" opacity="1.000000" stroke="none" 
	d="
M275.779968,459.729736 
	C267.357025,468.583832 257.516998,470.373291 246.864487,465.998474 
	C237.411270,462.116211 232.573929,454.326324 232.064316,444.209076 
	C231.519989,433.403259 238.912872,423.128357 249.070709,419.825165 
	C259.699463,416.368866 270.789886,419.967621 277.337860,428.997803 
	C283.987366,438.168030 283.484375,449.882416 275.779968,459.729736 
M266.262024,426.256958 
	C265.848511,425.978180 265.434967,425.699432 264.265747,425.085907 
	C261.512360,424.760651 258.758942,424.435394 255.215149,424.039795 
	C244.399353,425.698822 238.389603,432.211029 237.516190,443.848175 
	C238.225479,446.606689 238.934784,449.365204 239.847870,452.805817 
	C246.430344,463.786743 259.333099,466.486938 269.218262,458.743591 
	C274.655457,454.484467 277.451355,448.497162 276.686981,441.738495 
	C275.953766,435.255890 273.549988,429.174072 266.327362,426.735321 
	C266.327362,426.735321 266.270538,426.772583 266.262024,426.256958 
z"/>
<path fill="#FAA81C" opacity="1.000000" stroke="none" 
	d="
M213.617188,411.931488 
	C213.146957,409.393799 212.525803,406.591644 217.043076,406.108215 
	C219.889877,406.067627 221.933212,406.011383 223.976562,405.955170 
	C227.030899,406.345764 227.929428,408.322052 227.735626,411.451721 
	C223.168182,411.871704 218.617874,411.929108 213.617188,411.931488 
z"/>
<path fill="#FAA81C" opacity="1.000000" stroke="none" 
	d="
M297.023499,405.981384 
	C300.439087,406.086090 301.128815,408.240662 300.857117,411.489746 
	C296.278076,411.902924 291.717743,411.930511 286.719666,411.885437 
	C287.294342,409.909332 288.306671,408.005951 290.101868,406.110046 
	C292.930969,406.072113 294.977234,406.026764 297.023499,405.981384 
z"/>
<path fill="#FAA81C" opacity="1.000000" stroke="none" 
	d="
M189.038742,328.914490 
	C194.420029,330.870911 196.765839,334.880890 196.779251,340.431732 
	C196.797302,347.902466 196.859329,355.374298 196.757446,362.843658 
	C196.687256,367.988342 195.061905,372.324493 189.463089,374.472778 
	C180.123322,374.710602 171.049637,374.790100 161.517380,374.936127 
	C153.828171,372.037262 152.171738,369.622589 152.147675,361.873444 
	C152.125473,354.721710 152.095047,347.569397 152.159225,340.418152 
	C152.217468,333.928986 154.134277,331.339783 161.212753,328.913513 
	C171.034180,328.889557 180.036469,328.902008 189.038742,328.914490 
M178.021255,365.710358 
	C186.851135,366.060272 187.949448,365.042419 187.953323,356.492737 
	C187.955215,352.346130 187.933777,348.199463 187.953140,344.052979 
	C187.972046,340.005066 186.116241,337.860779 181.937698,337.891876 
	C176.962067,337.928925 171.985031,337.958527 167.010300,337.881897 
	C162.802795,337.817108 160.959244,339.903595 160.994095,343.978363 
	C161.028137,347.958801 160.997833,351.939789 160.998291,355.920532 
	C160.999390,365.419922 162.288147,366.566467 171.944916,366.271118 
	C174.540146,369.912811 175.233047,369.821106 178.021255,365.710358 
z"/>
<path fill="#595A5A" opacity="1.000000" stroke="none" 
	d="
M189.048950,328.452209 
	C180.036469,328.902008 171.034180,328.889557 161.576294,328.823303 
	C161.092392,321.138214 161.064102,313.506897 161.020340,305.400391 
	C161.148529,304.623627 161.353668,304.372223 162.161011,303.949432 
	C170.819260,301.746796 178.936783,299.765717 187.054321,297.784668 
	C187.726578,299.434845 188.941177,301.072449 188.979706,302.737274 
	C189.174408,311.150970 189.063141,319.571686 189.048950,328.452209 
z"/>
<path fill="#90B46A" opacity="1.000000" stroke="none" 
	d="
M138.728378,331.775269 
	C141.093918,329.392700 142.951675,326.867279 145.413025,325.274750 
	C147.173843,324.135468 150.611481,323.125458 151.776688,324.027252 
	C154.413818,326.068207 152.884399,328.782593 150.715363,330.765869 
	C140.397324,340.200165 133.704315,351.916382 131.579803,365.551239 
	C130.004303,375.662720 130.419464,386.090240 130.048279,396.380585 
	C129.898178,400.541687 130.247543,404.732971 129.882492,408.867493 
	C129.757523,410.282654 128.071762,412.718109 127.230827,412.663391 
	C125.632530,412.559357 124.068962,411.076538 122.624329,409.989197 
	C122.209305,409.676758 122.099251,408.755249 122.106316,408.115845 
	C122.284081,392.014130 120.754555,375.826141 124.532028,359.903748 
	C126.996567,349.515503 131.856430,340.334717 138.728378,331.775269 
z"/>
<path fill="#90B46A" opacity="1.000000" stroke="none" 
	d="
M123.108437,427.114258 
	C123.627045,425.035828 124.058586,423.064697 125.195908,421.668518 
	C125.525375,421.264130 128.655258,422.132416 129.117401,423.087189 
	C129.768463,424.432159 129.130219,426.401245 129.043243,428.103455 
	C127.125534,427.882477 125.207832,427.661469 123.108437,427.114258 
z"/>
<path fill="#F2AE97" opacity="1.000000" stroke="none" 
	d="
M205.795319,244.695862 
	C207.091125,244.776779 208.626816,244.895828 209.844208,245.580673 
	C237.507034,261.142670 264.663452,259.733490 290.255005,241.566711 
	C304.537964,231.427567 313.802917,216.974487 317.614929,199.516754 
	C317.838593,198.492401 317.389923,197.321228 316.956757,195.938416 
	C317.003601,194.928406 317.347870,194.198364 318.000916,193.151169 
	C318.539978,192.601593 318.532013,192.363281 318.285828,192.119049 
	C319.872223,186.514542 321.458649,180.910034 323.469849,174.832932 
	C325.938263,173.938110 327.981873,173.515900 330.025452,173.093674 
	C329.310028,177.765961 330.020325,181.008011 335.574585,182.674576 
	C340.225159,184.069992 343.422028,190.960526 342.915924,195.229492 
	C342.208893,201.193817 338.518463,205.858383 332.502289,206.985352 
	C326.619659,208.087280 326.875122,212.577118 326.067688,217.024063 
	C320.851135,229.703842 314.112762,240.972748 303.312988,249.785583 
	C295.567383,254.200058 288.008453,258.347839 279.805237,262.763000 
	C270.643738,264.020264 262.135254,265.672150 253.606400,265.784943 
	C247.098175,265.870972 240.564148,264.006775 234.041611,263.010162 
	C226.536606,258.771820 219.031601,254.533463 211.207336,250.171509 
	C209.221024,248.364456 207.553970,246.681000 205.795319,244.695862 
z"/>
<path fill="#F2AE97" opacity="1.000000" stroke="none" 
	d="
M202.258759,241.249817 
	C202.639282,241.242630 203.126190,241.488342 203.679504,242.014389 
	C203.285645,242.030731 202.825378,241.766724 202.258759,241.249817 
z"/>
<path fill="#F2AE97" opacity="1.000000" stroke="none" 
	d="
M203.835007,242.506744 
	C204.055878,242.418350 204.350372,242.571426 204.699371,242.980438 
	C204.472122,243.073685 204.190369,242.910950 203.835007,242.506744 
z"/>
<path fill="#F2AE97" opacity="1.000000" stroke="none" 
	d="
M204.835052,243.501526 
	C205.059692,243.410995 205.355850,243.565186 205.707123,243.976501 
	C205.477036,244.071136 205.191803,243.908676 204.835052,243.501526 
z"/>
<path fill="#E59076" opacity="1.000000" stroke="none" 
	d="
M234.011215,263.444519 
	C240.564148,264.006775 247.098175,265.870972 253.606400,265.784943 
	C262.135254,265.672150 270.643738,264.020264 279.557373,263.018890 
	C280.011108,265.307007 280.068451,267.606659 280.172882,270.326660 
	C280.152008,273.185028 280.084076,275.622986 279.572876,278.503967 
	C270.457367,279.956757 261.795807,281.617035 253.109329,281.759521 
	C246.773895,281.863434 240.405624,279.966827 234.052002,278.962006 
	C234.002121,276.536530 233.952240,274.111023 233.843811,271.225372 
	C233.850449,268.469757 233.915634,266.174347 234.011215,263.444519 
z"/>
<path fill="#434142" opacity="1.000000" stroke="none" 
	d="
M312.409637,164.981262 
	C316.219666,168.530746 317.285095,172.768036 316.194794,177.437088 
	C315.328583,181.146606 314.395538,184.892029 312.967926,188.408676 
	C309.516663,196.910126 304.400116,199.704803 295.249451,198.557022 
	C294.423676,198.453445 293.603912,198.295929 292.776398,198.212845 
	C277.215668,196.650467 268.271454,185.966629 269.980530,170.183456 
	C270.260803,167.595459 273.187103,165.293976 275.225555,162.800873 
	C287.691040,163.489960 299.821381,164.238235 312.409637,164.981262 
z"/>
<path fill="#FDD0BC" opacity="1.000000" stroke="none" 
	d="
M196.343842,160.286118 
	C192.515701,160.610168 189.036102,160.789230 185.087036,160.942688 
	C184.060913,157.086380 185.595352,154.701996 188.799622,152.296646 
	C194.209030,148.235992 198.955368,143.292068 204.112518,138.405487 
	C211.907776,138.049957 219.571060,138.008514 227.715149,138.028458 
	C239.430878,148.605301 252.743774,155.469864 267.462982,160.506516 
	C260.258423,165.072556 253.242493,164.004257 245.529770,160.465607 
	C229.490631,153.106720 213.024719,151.661652 196.343842,160.286118 
z"/>
<path fill="#ED7817" opacity="1.000000" stroke="none" 
	d="
M330.251068,172.910690 
	C327.981873,173.515900 325.938263,173.938110 323.502380,174.450546 
	C322.194489,170.976364 321.278870,167.411987 320.194885,163.542770 
	C323.100494,162.493393 326.174500,161.748856 329.647827,161.027359 
	C330.698914,164.079819 331.350647,167.109238 332.012878,170.568665 
	C331.507812,171.575027 330.992249,172.151367 330.251068,172.910690 
z"/>
<path fill="#FBC4AD" opacity="1.000000" stroke="none" 
	d="
M234.024384,279.396454 
	C240.405624,279.966827 246.773895,281.863434 253.109329,281.759521 
	C261.795807,281.617035 270.457367,279.956757 279.538025,278.952972 
	C279.989868,280.693756 280.033325,282.428497 280.074860,285.047638 
	C280.112885,289.690033 280.152832,293.448029 280.192810,297.206055 
	C280.126495,301.686157 280.132935,306.168732 279.979828,310.645844 
	C279.559509,322.935547 269.204315,332.900635 256.956238,332.874847 
	C244.700989,332.849060 234.404343,322.866577 234.018478,310.556610 
	C233.888489,306.409485 233.945099,302.256500 233.922836,297.177429 
	C233.886169,292.504700 233.843094,288.760773 233.800049,285.016815 
	C233.865616,283.288177 233.931198,281.559540 234.024384,279.396454 
z"/>
<path fill="#EF7816" opacity="1.000000" stroke="none" 
	d="
M233.345886,285.012787 
	C233.843094,288.760773 233.886169,292.504700 233.867996,296.725159 
	C230.811569,297.211639 227.816376,297.221619 223.948364,297.197571 
	C221.065323,297.213379 219.055115,297.263153 217.044922,297.312927 
	C207.278168,297.342285 197.511414,297.371674 187.399490,297.592834 
	C178.936783,299.765717 170.819260,301.746796 162.348190,303.790344 
	C161.993408,299.694244 162.148285,295.528168 161.949890,291.378998 
	C161.721588,286.604462 163.864899,284.918060 168.516815,284.945862 
	C189.974472,285.074036 211.433304,285.006256 233.345886,285.012787 
z"/>
<path fill="#EF7816" opacity="1.000000" stroke="none" 
	d="
M280.635498,297.187836 
	C280.152832,293.448029 280.112885,289.690033 280.137146,285.475037 
	C301.814392,285.012299 323.427460,284.994385 345.040527,285.008667 
	C351.121460,285.012665 351.962708,285.879822 352.005035,291.926758 
	C352.030640,295.584167 352.011047,299.241943 352.009583,303.352264 
	C343.957062,301.812958 335.906738,299.820923 327.401794,297.806824 
	C317.261658,297.591431 307.576111,297.398102 296.996521,297.180237 
	C294.095673,297.217621 292.088867,297.279572 290.082092,297.341522 
	C287.080811,297.284241 284.079529,297.226929 280.635498,297.187836 
z"/>
<path fill="#5C5B59" opacity="1.000000" stroke="none" 
	d="
M335.840698,365.629547 
	C326.254395,366.285400 325.118500,365.237579 325.117249,355.723755 
	C325.116730,351.739929 325.089203,347.755646 325.138245,343.772369 
	C325.184906,339.983154 327.019836,337.893463 330.950165,337.900360 
	C336.095947,337.909393 341.241821,337.920349 346.387512,337.899872 
	C350.004883,337.885468 352.034912,339.531403 352.052399,343.262054 
	C352.078827,348.905670 352.196136,354.553864 352.016968,360.191895 
	C351.871613,364.765900 350.046753,365.793945 342.453003,365.436127 
	C341.842133,361.876831 342.073303,358.681732 341.539398,355.620087 
	C341.306366,354.283752 339.506073,353.220734 338.417511,352.033600 
	C337.577423,353.255310 336.156006,354.412384 336.011536,355.711456 
	C335.647614,358.983368 335.859558,362.319275 335.840698,365.629547 
z"/>
<path fill="#F4921D" opacity="1.000000" stroke="none" 
	d="
M335.918457,366.001923 
	C335.859558,362.319275 335.647614,358.983368 336.011536,355.711456 
	C336.156006,354.412384 337.577423,353.255310 338.417511,352.033600 
	C339.506073,353.220734 341.306366,354.283752 341.539398,355.620087 
	C342.073303,358.681732 341.842133,361.876831 342.036987,365.458374 
	C340.205750,367.422485 338.475769,371.752655 335.918457,366.001923 
z"/>
<path fill="#434142" opacity="1.000000" stroke="none" 
	d="
M244.201080,173.905411 
	C242.625885,179.220474 241.590210,184.333389 239.409241,188.899216 
	C236.560745,194.862503 231.446320,198.121613 224.548889,198.019577 
	C223.222717,197.999969 221.887695,198.133423 220.566666,198.283493 
	C208.182404,199.690292 203.720184,196.911316 199.713043,185.041412 
	C198.814484,182.379745 198.135178,179.610535 197.686340,176.837204 
	C196.559723,169.875641 199.572556,164.140778 206.162354,161.664673 
	C217.883514,157.260468 229.365906,158.912857 240.519241,163.961304 
	C244.759781,165.880753 244.234558,169.806213 244.201080,173.905411 
z"/>
<path fill="#FBC4AD" opacity="1.000000" stroke="none" 
	d="
M318.200256,192.326508 
	C318.532013,192.363281 318.539978,192.601593 318.186890,192.906952 
	C318.064056,192.979919 318.114655,192.533951 318.200256,192.326508 
z"/>
<path fill="#59595B" opacity="1.000000" stroke="none" 
	d="
M217.022278,297.757202 
	C219.055115,297.263153 221.065323,297.213379 223.496704,297.252563 
	C223.943283,333.235992 223.968674,369.130463 223.985321,405.490051 
	C221.933212,406.011383 219.889877,406.067627 217.411423,406.052002 
	C216.984100,370.053894 216.991867,334.127716 217.022278,297.757202 
z"/>
<path fill="#59595B" opacity="1.000000" stroke="none" 
	d="
M290.059998,297.783875 
	C292.088867,297.279572 294.095673,297.217621 296.528412,297.233521 
	C296.983093,333.223450 297.011780,369.135529 297.031982,405.514526 
	C294.977234,406.026764 292.930969,406.072113 290.454041,406.036316 
	C290.028229,370.045502 290.033081,334.135834 290.059998,297.783875 
z"/>
<path fill="#ED7817" opacity="1.000000" stroke="none" 
	d="
M266.394775,426.743927 
	C273.549988,429.174072 275.953766,435.255890 276.686981,441.738495 
	C277.451355,448.497162 274.655457,454.484467 269.218262,458.743591 
	C259.333099,466.486938 246.430344,463.786743 240.194000,452.431061 
	C241.200668,452.077942 241.878204,452.010986 242.519196,452.134186 
	C255.756012,454.678345 265.956116,446.222687 266.025543,432.670898 
	C266.035675,430.694672 266.266205,428.719543 266.394775,426.743927 
z"/>
<path fill="#F79219" opacity="1.000000" stroke="none" 
	d="
M266.361084,426.739624 
	C266.266205,428.719543 266.035675,430.694672 266.025543,432.670898 
	C265.956116,446.222687 255.756012,454.678345 242.519196,452.134186 
	C241.878204,452.010986 241.200668,452.077942 240.092117,452.090027 
	C238.934784,449.365204 238.225479,446.606689 238.013626,443.383728 
	C250.906555,439.453888 255.701614,434.298492 256.005554,424.110138 
	C258.758942,424.435394 261.512360,424.760651 264.695496,425.500610 
	C265.506989,426.201050 265.888763,426.486816 266.270538,426.772583 
	C266.270538,426.772583 266.327362,426.735321 266.361084,426.739624 
z"/>
<path fill="#FAA81C" opacity="1.000000" stroke="none" 
	d="
M255.610352,424.074951 
	C255.701614,434.298492 250.906555,439.453888 238.105835,442.968994 
	C238.389603,432.211029 244.399353,425.698822 255.610352,424.074951 
z"/>
<path fill="#ED7817" opacity="1.000000" stroke="none" 
	d="
M266.266296,426.514771 
	C265.888763,426.486816 265.506989,426.201050 265.073334,425.667969 
	C265.434967,425.699432 265.848511,425.978180 266.266296,426.514771 
z"/>
<path fill="#5C5B59" opacity="1.000000" stroke="none" 
	d="
M171.754150,365.494141 
	C162.288147,366.566467 160.999390,365.419922 160.998291,355.920532 
	C160.997833,351.939789 161.028137,347.958801 160.994095,343.978363 
	C160.959244,339.903595 162.802795,337.817108 167.010300,337.881897 
	C171.985031,337.958527 176.962067,337.928925 181.937698,337.891876 
	C186.116241,337.860779 187.972046,340.005066 187.953140,344.052979 
	C187.933777,348.199463 187.955215,352.346130 187.953323,356.492737 
	C187.949448,365.042419 186.851135,366.060272 177.620667,365.213196 
	C177.208237,361.920166 177.519119,359.069672 177.059021,356.349640 
	C176.798523,354.809631 175.272461,353.483673 174.316406,352.061310 
	C173.454117,353.414581 172.022232,354.698364 171.847031,356.135406 
	C171.471786,359.213013 171.745956,362.369781 171.754150,365.494141 
z"/>
<path fill="#F79219" opacity="1.000000" stroke="none" 
	d="
M171.849533,365.882629 
	C171.745956,362.369781 171.471786,359.213013 171.847031,356.135406 
	C172.022232,354.698364 173.454117,353.414581 174.316406,352.061310 
	C175.272461,353.483673 176.798523,354.809631 177.059021,356.349640 
	C177.519119,359.069672 177.208237,361.920166 177.210266,365.145752 
	C175.233047,369.821106 174.540146,369.912811 171.849533,365.882629 
z"/>
</svg>